<?xml version="1.0" standalone="no"?>
<!DOCTYPE svg PUBLIC "-//W3C//DTD SVG 20010904//EN"
 "http://www.w3.org/TR/2001/REC-SVG-20010904/DTD/svg10.dtd">
<svg version="1.0" xmlns="http://www.w3.org/2000/svg"
 width="512.000000pt" height="512.000000pt" viewBox="0 0 512.000000 512.000000"
 preserveAspectRatio="xMidYMid meet">

<g transform="translate(0.000000,512.000000) scale(0.100000,-0.100000)"
fill="#B8B8B8" stroke="none">
<path d="M2355 4904 c-182 -19 -416 -70 -570 -124 -752 -266 -1311 -878 -1505
-1650 -54 -215 -65 -312 -65 -575 1 -263 14 -372 74 -601 181 -687 679 -1266
1335 -1550 323 -139 659 -203 1011 -191 196 7 325 25 509 71 832 211 1492 876
1696 1708 54 220 65 313 65 563 0 259 -13 368 -70 591 -89 346 -259 671 -497
949 -301 352 -727 619 -1172 736 -209 54 -333 71 -561 74 -115 2 -228 1 -250
-1z m433 -145 c658 -71 1252 -431 1615 -978 236 -356 367 -792 367 -1218 0
-1221 -992 -2213 -2213 -2213 -337 0 -653 73 -962 224 -458 223 -799 565
-1021 1021 -299 616 -300 1310 -3 1924 222 458 569 807 1024 1027 234 113 477
185 720 212 114 13 359 14 473 1z"/>
<path d="M2370 4510 c-449 -47 -854 -236 -1174 -549 -313 -306 -496 -660 -572
-1106 -24 -138 -24 -452 0 -590 76 -445 262 -804 572 -1106 300 -291 644 -463
1069 -535 139 -24 453 -24 590 -1 445 77 804 263 1106 573 292 301 462 641
535 1069 24 141 24 443 0 589 -53 322 -181 626 -371 881 -76 103 -287 314
-390 390 -251 187 -541 311 -855 366 -133 23 -384 32 -510 19z m500 -159 c520
-91 976 -404 1249 -856 315 -523 342 -1193 71 -1736 -476 -951 -1637 -1300
-2550 -766 -853 500 -1149 1598 -663 2461 179 317 473 592 798 745 206 98 372
143 645 175 79 9 340 -4 450 -23z"/>
<path d="M2010 4053 c-47 -18 -50 -29 -50 -185 l0 -148 -174 0 c-235 0 -221
13 -221 -204 0 -211 -8 -200 160 -204 l125 -4 0 -748 0 -748 -125 -4 c-168 -4
-160 7 -160 -204 0 -217 -14 -204 221 -204 l174 0 0 -148 c0 -197 -11 -187
200 -187 211 0 200 -10 200 187 l0 148 115 0 115 0 0 -144 c0 -197 -6 -190
177 -194 166 -4 206 5 222 50 6 17 11 88 11 158 l0 127 88 6 c262 18 469 154
583 382 67 135 84 265 53 413 -37 178 -132 318 -297 435 -18 13 -17 15 14 61
104 155 132 387 69 571 -70 204 -253 378 -451 429 l-54 13 -5 149 c-3 82 -9
157 -14 166 -14 30 -73 40 -219 36 -183 -4 -177 3 -177 -194 l0 -144 -115 0
-115 0 0 148 c0 195 9 186 -189 189 -80 1 -153 -1 -161 -4z m212 -251 c5 -135
22 -177 82 -206 51 -24 297 -23 345 2 65 33 76 58 79 198 l4 125 61 -3 62 -3
5 -130 c7 -170 19 -189 141 -220 236 -61 402 -269 403 -505 0 -136 -39 -241
-133 -359 -73 -91 -68 -110 39 -167 127 -66 209 -159 256 -289 81 -222 -4
-476 -203 -608 -93 -62 -175 -88 -298 -94 -107 -6 -135 -15 -175 -58 -23 -25
-25 -35 -30 -153 l-5 -127 -62 -3 -61 -3 -4 125 c-3 140 -14 165 -79 198 -48
25 -294 26 -345 2 -60 -29 -77 -71 -82 -206 l-4 -118 -59 0 -59 0 0 108 c0 92
-3 114 -22 152 -36 70 -65 80 -235 80 l-143 0 0 65 0 65 88 0 c103 0 146 17
177 70 20 34 20 49 20 820 0 771 0 786 -20 820 -31 53 -74 70 -177 70 l-88 0
0 65 0 65 143 0 c170 0 199 10 235 80 19 38 22 60 22 152 l0 108 59 0 59 0 4
-118z"/>
<path d="M2205 3316 l-26 -26 3 -275 c3 -248 5 -276 21 -292 16 -17 43 -18
325 -18 271 0 313 2 359 18 70 25 145 94 179 165 37 77 39 183 6 257 -30 65
-102 138 -166 167 -49 22 -62 23 -363 26 l-313 3 -25 -25z m668 -146 c96 -66
109 -190 28 -271 -54 -54 -87 -60 -348 -57 l-228 3 -3 178 -2 178 258 -3 c257
-3 259 -3 295 -28z"/>
<path d="M2210 2380 c-19 -19 -20 -33 -20 -289 0 -256 1 -269 21 -295 l20 -26
399 0 c384 0 401 1 457 21 68 26 138 92 173 164 32 68 34 188 3 256 -30 67
-86 124 -155 159 l-61 30 -409 0 c-395 0 -409 -1 -428 -20z m839 -134 c42 -22
89 -81 97 -121 13 -70 -18 -144 -79 -189 -27 -20 -41 -21 -383 -24 l-354 -3 0
176 0 175 345 0 c283 0 351 -3 374 -14z"/>
</g>
</svg>
